REM DIRINDEX 1\2,1\3,1\4,1\5
REM DIRNAME "folder01","folder02","folder03","folder04","folder05"
TITLE ""
FILE "P1Q_t_1110-1119.mp3" MP3
  TRACK 01 AUDIO
    TITLE "3:cjc173_4290"
    INDEX 01 00:00:00
  TRACK 02 AUDIO
    TITLE "0:"
    INDEX 01 00:01:23
  TRACK 03 AUDIO
    TITLE "4:cjc173_4291"
    INDEX 01 00:01:47
  TRACK 04 AUDIO
    TITLE "0:"
    INDEX 01 00:05:58
  TRACK 05 AUDIO
    TITLE "5:cjc173_4292"
    INDEX 01 00:06:03
  TRACK 06 AUDIO
    TITLE "0:"
    INDEX 01 00:10:09
  TRACK 07 AUDIO
    TITLE "3:cjc173_4293"
    INDEX 01 00:10:54
  TRACK 08 AUDIO
    TITLE "0:"
    INDEX 01 00:11:67
  TRACK 09 AUDIO
    TITLE "4:cjc173_4294"
    INDEX 01 00:12:13
  TRACK 10 AUDIO
    TITLE "0:"
    INDEX 01 00:13:58
  TRACK 11 AUDIO
    TITLE "5:cjc173_4295"
    INDEX 01 00:14:03
  TRACK 12 AUDIO
    TITLE "0:"
    INDEX 01 00:17:58
  TRACK 13 AUDIO
    TITLE "3:cjc173_4296"
    INDEX 01 00:18:30
  TRACK 14 AUDIO
    TITLE "0:"
    INDEX 01 00:19:51
  TRACK 15 AUDIO
    TITLE "4:cjc173_4297"
    INDEX 01 00:19:70
  TRACK 16 AUDIO
    TITLE "0:"
    INDEX 01 00:22:45
  TRACK 17 AUDIO
    TITLE "5:cjc173_4298"
    INDEX 01 00:22:63
  TRACK 18 AUDIO
    TITLE "0:"
    INDEX 01 00:27:56
  TRACK 19 AUDIO
    TITLE "3:cjc173_4299"
    INDEX 01 00:28:26
  TRACK 20 AUDIO
    TITLE "0:"
    INDEX 01 00:29:49
  TRACK 21 AUDIO
    TITLE "4:cjc173_4300"
    INDEX 01 00:29:69
  TRACK 22 AUDIO
    TITLE "0:"
    INDEX 01 00:33:43
  TRACK 23 AUDIO
    TITLE "5:cjc173_4301"
    INDEX 01 00:33:63
  TRACK 24 AUDIO
    TITLE "0:"
    INDEX 01 00:38:58
  TRACK 25 AUDIO
    TITLE "3:cjc173_4302"
    INDEX 01 00:39:32
  TRACK 26 AUDIO
    TITLE "0:"
    INDEX 01 00:40:49
  TRACK 27 AUDIO
    TITLE "4:cjc173_4303"
    INDEX 01 00:40:73
  TRACK 28 AUDIO
    TITLE "0:"
    INDEX 01 00:43:53
  TRACK 29 AUDIO
    TITLE "5:cjc173_4304"
    INDEX 01 00:43:73
  TRACK 30 AUDIO
    TITLE "0:"
    INDEX 01 00:47:43
  TRACK 31 AUDIO
    TITLE "3:cjc173_4305"
    INDEX 01 00:48:13
  TRACK 32 AUDIO
    TITLE "0:"
    INDEX 01 00:49:32
  TRACK 33 AUDIO
    TITLE "4:cjc173_4306"
    INDEX 01 00:49:54
  TRACK 34 AUDIO
    TITLE "0:"
    INDEX 01 00:52:29
  TRACK 35 AUDIO
    TITLE "5:cjc173_4307"
    INDEX 01 00:52:48
  TRACK 36 AUDIO
    TITLE "0:"
    INDEX 01 00:57:53
  TRACK 37 AUDIO
    TITLE "3:cjc173_4308"
    INDEX 01 00:58:23
  TRACK 38 AUDIO
    TITLE "0:"
    INDEX 01 00:59:52
  TRACK 39 AUDIO
    TITLE "4:cjc173_4309"
    INDEX 01 00:59:72
  TRACK 40 AUDIO
    TITLE "0:"
    INDEX 01 01:03:07
  TRACK 41 AUDIO
    TITLE "5:cjc173_4310"
    INDEX 01 01:03:27
  TRACK 42 AUDIO
    TITLE "0:"
    INDEX 01 01:07:40
  TRACK 43 AUDIO
    TITLE "3:cjc173_4311"
    INDEX 01 01:08:08
  TRACK 44 AUDIO
    TITLE "0:"
    INDEX 01 01:09:31
  TRACK 45 AUDIO
    TITLE "4:cjc173_4312"
    INDEX 01 01:09:51
  TRACK 46 AUDIO
    TITLE "0:"
    INDEX 01 01:14:01
  TRACK 47 AUDIO
    TITLE "5:cjc173_4313"
    INDEX 01 01:14:20
  TRACK 48 AUDIO
    TITLE "0:"
    INDEX 01 01:17:46
  TRACK 49 AUDIO
    TITLE "3:cjc173_4314"
    INDEX 01 01:18:16
  TRACK 50 AUDIO
    TITLE "0:"
    INDEX 01 01:19:47
  TRACK 51 AUDIO
    TITLE "4:cjc173_4315"
    INDEX 01 01:19:69
  TRACK 52 AUDIO
    TITLE "0:"
    INDEX 01 01:23:16
  TRACK 53 AUDIO
    TITLE "5:cjc173_4316"
    INDEX 01 01:23:33
  TRACK 54 AUDIO
    TITLE "0:"
    INDEX 01 01:28:21
  TRACK 55 AUDIO
    TITLE "3:cjc173_4317"
    INDEX 01 01:28:66
  TRACK 56 AUDIO
    TITLE "0:"
    INDEX 01 01:30:16
  TRACK 57 AUDIO
    TITLE "4:cjc173_4318"
    INDEX 01 01:30:35
  TRACK 58 AUDIO
    TITLE "0:"
    INDEX 01 01:35:40
  TRACK 59 AUDIO
    TITLE "5:cjc173_4319"
    INDEX 01 01:35:58
  TRACK 60 AUDIO
    TITLE "0:"
    INDEX 01 01:39:16
